<?xml version="1.0" encoding="UTF-8"?>
<svg xmlns="http://www.w3.org/2000/svg" width="980" height="620" viewBox="0 0 980 620" role="img" aria-label="Part A Regression">
  <defs>
    <linearGradient id="bg" x1="0" x2="1" y1="0" y2="1"><stop offset="0" stop-color="#ffffff"/><stop offset="0.58" stop-color="#f6faff"/><stop offset="1" stop-color="#eef5ff"/></linearGradient>
    <linearGradient id="line" x1="0" x2="1"><stop offset="0" stop-color="#80e0ff"/><stop offset="1" stop-color="#ff80e0"/></linearGradient>
    <filter id="glow"><feGaussianBlur stdDeviation="4" result="blur"/><feMerge><feMergeNode in="blur"/><feMergeNode in="SourceGraphic"/></feMerge></filter>
  </defs>
  <style>
    .title{font:700 29px 'Space Mono', Consolas, monospace;fill:#18213a;letter-spacing:.5px}.sub{font:14px 'Space Mono', Consolas, monospace;fill:#5d6d83}.axis,.frame{stroke:#4d6178;stroke-width:1.2}.grid{stroke:#d9e5f4;stroke-width:1}.tick{font:12px 'Space Mono', Consolas, monospace;fill:#66758a}.label{font:13px 'Space Mono', Consolas, monospace;fill:#4f6077}.dot{fill:#2f80ff;filter:url(#glow)}.fit{stroke:url(#line);stroke-width:4;stroke-linecap:round;filter:url(#glow)}
  </style>
  <rect width="980" height="620" rx="28" fill="url(#bg)"/>
  <circle cx="835" cy="80" r="150" fill="#80e0ff" opacity="0.18"/>
  <circle cx="120" cy="540" r="180" fill="#ff80e0" opacity="0.12"/>
  <text x="86" y="46" class="title">Part A Regression</text>
  <text x="86" y="72" class="sub">Actual IV/DV rows with fitted linear trend</text>
  <rect x="86" y="92" width="848" height="442" rx="18" fill="#fbfdff" stroke="#d7e2f1"/>
  <line x1="86" y1="92" x2="86" y2="534" class="grid"/><line x1="86" y1="534" x2="934" y2="534" class="grid"/><text x="86" y="578" class="tick" text-anchor="middle">1.57</text><text x="68" y="538" class="tick" text-anchor="end">64.5</text>
<line x1="298.00000000000006" y1="92" x2="298.00000000000006" y2="534" class="grid"/><line x1="86" y1="423.50000000000006" x2="934" y2="423.50000000000006" class="grid"/><text x="298.00000000000006" y="578" class="tick" text-anchor="middle">3.14</text><text x="68" y="427.50000000000006" class="tick" text-anchor="end">75.7</text>
<line x1="510.0000000000001" y1="92" x2="510.0000000000001" y2="534" class="grid"/><line x1="86" y1="313.0000000000001" x2="934" y2="313.0000000000001" class="grid"/><text x="510.0000000000001" y="578" class="tick" text-anchor="middle">4.72</text><text x="68" y="317.0000000000001" class="tick" text-anchor="end">86.8</text>
<line x1="722" y1="92" x2="722" y2="534" class="grid"/><line x1="86" y1="202.49999999999994" x2="934" y2="202.49999999999994" class="grid"/><text x="722" y="578" class="tick" text-anchor="middle">6.29</text><text x="68" y="206.49999999999994" class="tick" text-anchor="end">97.9</text>
<line x1="934" y1="92" x2="934" y2="534" class="grid"/><line x1="86" y1="92" x2="934" y2="92" class="grid"/><text x="934" y="578" class="tick" text-anchor="middle">7.86</text><text x="68" y="96" class="tick" text-anchor="end">109.1</text>
  <line x1="86" y1="534" x2="934" y2="534" class="axis"/>
  <line x1="86" y1="92" x2="86" y2="534" class="axis"/>
  <circle cx="530.95" cy="268.26" r="4.2" class="dot" opacity="0.9"/>
<circle cx="518.79" cy="278.62" r="4.2" class="dot" opacity="0.62"/>
<circle cx="653.92" cy="255.05" r="4.2" class="dot" opacity="0.62"/>
<circle cx="440.72" cy="346.80" r="4.2" class="dot" opacity="0.9"/>
<circle cx="364.22" cy="365.88" r="4.2" class="dot" opacity="0.62"/>
<circle cx="350.14" cy="393.55" r="4.2" class="dot" opacity="0.62"/>
<circle cx="539.61" cy="313.34" r="4.2" class="dot" opacity="0.9"/>
<circle cx="568.38" cy="277.70" r="4.2" class="dot" opacity="0.62"/>
<circle cx="702.79" cy="211.19" r="4.2" class="dot" opacity="0.62"/>
<circle cx="700.46" cy="193.71" r="4.2" class="dot" opacity="0.9"/>
<circle cx="823.77" cy="165.43" r="4.2" class="dot" opacity="0.62"/>
<circle cx="368.94" cy="410.62" r="4.2" class="dot" opacity="0.62"/>
<circle cx="620.70" cy="242.24" r="4.2" class="dot" opacity="0.9"/>
<circle cx="593.28" cy="256.29" r="4.2" class="dot" opacity="0.62"/>
<circle cx="528.37" cy="290.81" r="4.2" class="dot" opacity="0.62"/>
<circle cx="658.10" cy="226.34" r="4.2" class="dot" opacity="0.9"/>
<circle cx="449.53" cy="339.55" r="4.2" class="dot" opacity="0.62"/>
<circle cx="450.09" cy="415.68" r="4.2" class="dot" opacity="0.62"/>
<circle cx="451.43" cy="352.51" r="4.2" class="dot" opacity="0.9"/>
<circle cx="804.83" cy="133.30" r="4.2" class="dot" opacity="0.62"/>
<circle cx="406.73" cy="399.00" r="4.2" class="dot" opacity="0.62"/>
<circle cx="607.46" cy="305.42" r="4.2" class="dot" opacity="0.9"/>
<circle cx="628.71" cy="224.41" r="4.2" class="dot" opacity="0.62"/>
<circle cx="657.38" cy="280.04" r="4.2" class="dot" opacity="0.62"/>
<circle cx="695.01" cy="259.80" r="4.2" class="dot" opacity="0.9"/>
<circle cx="391.87" cy="401.96" r="4.2" class="dot" opacity="0.62"/>
<circle cx="318.27" cy="463.74" r="4.2" class="dot" opacity="0.62"/>
<circle cx="427.82" cy="390.99" r="4.2" class="dot" opacity="0.9"/>
<circle cx="279.57" cy="460.18" r="4.2" class="dot" opacity="0.62"/>
<circle cx="599.07" cy="249.97" r="4.2" class="dot" opacity="0.62"/>
<circle cx="679.69" cy="148.89" r="4.2" class="dot" opacity="0.9"/>
<circle cx="634.17" cy="275.14" r="4.2" class="dot" opacity="0.62"/>
<circle cx="827.62" cy="127.67" r="4.2" class="dot" opacity="0.62"/>
<circle cx="548.19" cy="271.48" r="4.2" class="dot" opacity="0.9"/>
<circle cx="447.69" cy="339.21" r="4.2" class="dot" opacity="0.62"/>
<circle cx="619.31" cy="210.77" r="4.2" class="dot" opacity="0.62"/>
<circle cx="365.15" cy="406.82" r="4.2" class="dot" opacity="0.9"/>
<circle cx="463.96" cy="326.52" r="4.2" class="dot" opacity="0.62"/>
<circle cx="606.94" cy="288.62" r="4.2" class="dot" opacity="0.62"/>
<circle cx="327.44" cy="410.46" r="4.2" class="dot" opacity="0.9"/>
<circle cx="725.82" cy="180.39" r="4.2" class="dot" opacity="0.62"/>
<circle cx="494.37" cy="303.66" r="4.2" class="dot" opacity="0.62"/>
<circle cx="530.51" cy="275.80" r="4.2" class="dot" opacity="0.9"/>
<circle cx="453.63" cy="352.23" r="4.2" class="dot" opacity="0.62"/>
<circle cx="472.64" cy="310.45" r="4.2" class="dot" opacity="0.62"/>
<circle cx="387.31" cy="332.48" r="4.2" class="dot" opacity="0.9"/>
<circle cx="516.45" cy="266.37" r="4.2" class="dot" opacity="0.62"/>
<circle cx="385.72" cy="343.97" r="4.2" class="dot" opacity="0.62"/>
<circle cx="249.45" cy="433.47" r="4.2" class="dot" opacity="0.9"/>
<circle cx="340.97" cy="387.42" r="4.2" class="dot" opacity="0.62"/>
<circle cx="663.28" cy="189.30" r="4.2" class="dot" opacity="0.62"/>
<circle cx="604.23" cy="270.96" r="4.2" class="dot" opacity="0.9"/>
<circle cx="561.01" cy="316.31" r="4.2" class="dot" opacity="0.62"/>
<circle cx="518.32" cy="378.56" r="4.2" class="dot" opacity="0.62"/>
<circle cx="337.27" cy="431.57" r="4.2" class="dot" opacity="0.9"/>
<circle cx="678.52" cy="250.72" r="4.2" class="dot" opacity="0.62"/>
<circle cx="779.11" cy="203.62" r="4.2" class="dot" opacity="0.62"/>
<circle cx="560.11" cy="291.12" r="4.2" class="dot" opacity="0.9"/>
<circle cx="810.85" cy="146.11" r="4.2" class="dot" opacity="0.62"/>
<circle cx="700.38" cy="254.83" r="4.2" class="dot" opacity="0.62"/>
<circle cx="450.46" cy="396.99" r="4.2" class="dot" opacity="0.9"/>
<circle cx="587.56" cy="274.17" r="4.2" class="dot" opacity="0.62"/>
<circle cx="640.97" cy="248.05" r="4.2" class="dot" opacity="0.62"/>
<circle cx="770.10" cy="174.27" r="4.2" class="dot" opacity="0.9"/>
<circle cx="777.88" cy="152.31" r="4.2" class="dot" opacity="0.62"/>
<circle cx="542.61" cy="250.94" r="4.2" class="dot" opacity="0.62"/>
<circle cx="653.91" cy="205.78" r="4.2" class="dot" opacity="0.9"/>
<circle cx="700.18" cy="201.36" r="4.2" class="dot" opacity="0.62"/>
<circle cx="857.60" cy="144.89" r="4.2" class="dot" opacity="0.62"/>
<circle cx="564.34" cy="241.44" r="4.2" class="dot" opacity="0.9"/>
<circle cx="453.51" cy="338.68" r="4.2" class="dot" opacity="0.62"/>
<circle cx="519.27" cy="281.94" r="4.2" class="dot" opacity="0.62"/>
<circle cx="361.85" cy="416.75" r="4.2" class="dot" opacity="0.9"/>
<circle cx="487.11" cy="361.22" r="4.2" class="dot" opacity="0.62"/>
<circle cx="529.52" cy="303.30" r="4.2" class="dot" opacity="0.62"/>
<circle cx="467.95" cy="302.69" r="4.2" class="dot" opacity="0.9"/>
<circle cx="515.69" cy="320.73" r="4.2" class="dot" opacity="0.62"/>
<circle cx="585.85" cy="309.03" r="4.2" class="dot" opacity="0.62"/>
<circle cx="437.61" cy="355.20" r="4.2" class="dot" opacity="0.9"/>
<circle cx="630.61" cy="216.80" r="4.2" class="dot" opacity="0.62"/>
<circle cx="774.90" cy="146.56" r="4.2" class="dot" opacity="0.62"/>
<circle cx="321.95" cy="392.52" r="4.2" class="dot" opacity="0.9"/>
<circle cx="311.88" cy="432.68" r="4.2" class="dot" opacity="0.62"/>
<circle cx="555.76" cy="294.31" r="4.2" class="dot" opacity="0.62"/>
<circle cx="722.15" cy="182.74" r="4.2" class="dot" opacity="0.9"/>
<circle cx="841.38" cy="122.48" r="4.2" class="dot" opacity="0.62"/>
<circle cx="563.31" cy="238.73" r="4.2" class="dot" opacity="0.62"/>
<circle cx="591.11" cy="240.11" r="4.2" class="dot" opacity="0.9"/>
<circle cx="557.08" cy="270.83" r="4.2" class="dot" opacity="0.62"/>
<circle cx="441.35" cy="404.43" r="4.2" class="dot" opacity="0.62"/>
<circle cx="514.19" cy="364.17" r="4.2" class="dot" opacity="0.9"/>
<circle cx="574.50" cy="282.75" r="4.2" class="dot" opacity="0.62"/>
<circle cx="655.15" cy="261.62" r="4.2" class="dot" opacity="0.62"/>
<circle cx="653.63" cy="194.08" r="4.2" class="dot" opacity="0.9"/>
<circle cx="323.20" cy="409.12" r="4.2" class="dot" opacity="0.62"/>
<circle cx="593.55" cy="244.41" r="4.2" class="dot" opacity="0.62"/>
<circle cx="512.14" cy="260.19" r="4.2" class="dot" opacity="0.9"/>
<circle cx="209.15" cy="453.33" r="4.2" class="dot" opacity="0.62"/>
<circle cx="479.51" cy="370.84" r="4.2" class="dot" opacity="0.62"/>
<circle cx="535.81" cy="326.54" r="4.2" class="dot" opacity="0.9"/>
<circle cx="504.78" cy="340.79" r="4.2" class="dot" opacity="0.62"/>
<circle cx="649.06" cy="258.79" r="4.2" class="dot" opacity="0.62"/>
<circle cx="310.74" cy="492.58" r="4.2" class="dot" opacity="0.9"/>
<circle cx="488.82" cy="335.97" r="4.2" class="dot" opacity="0.62"/>
<circle cx="725.60" cy="159.98" r="4.2" class="dot" opacity="0.62"/>
<circle cx="493.90" cy="359.48" r="4.2" class="dot" opacity="0.9"/>
<circle cx="605.92" cy="297.62" r="4.2" class="dot" opacity="0.62"/>
<circle cx="497.56" cy="364.95" r="4.2" class="dot" opacity="0.62"/>
<circle cx="431.15" cy="332.58" r="4.2" class="dot" opacity="0.9"/>
<circle cx="474.01" cy="310.01" r="4.2" class="dot" opacity="0.62"/>
<circle cx="434.72" cy="373.18" r="4.2" class="dot" opacity="0.62"/>
<circle cx="657.43" cy="271.19" r="4.2" class="dot" opacity="0.9"/>
<circle cx="540.85" cy="289.56" r="4.2" class="dot" opacity="0.62"/>
<circle cx="447.12" cy="335.65" r="4.2" class="dot" opacity="0.62"/>
<circle cx="395.72" cy="404.90" r="4.2" class="dot" opacity="0.9"/>
<circle cx="230.72" cy="486.40" r="4.2" class="dot" opacity="0.62"/>
<circle cx="671.03" cy="251.51" r="4.2" class="dot" opacity="0.62"/>
<circle cx="760.40" cy="174.00" r="4.2" class="dot" opacity="0.9"/>
<circle cx="490.83" cy="367.31" r="4.2" class="dot" opacity="0.62"/>
<circle cx="657.76" cy="309.70" r="4.2" class="dot" opacity="0.62"/>
<circle cx="797.16" cy="130.83" r="4.2" class="dot" opacity="0.9"/>
<circle cx="291.80" cy="395.66" r="4.2" class="dot" opacity="0.62"/>
<circle cx="746.79" cy="189.67" r="4.2" class="dot" opacity="0.62"/>
<circle cx="605.87" cy="281.36" r="4.2" class="dot" opacity="0.9"/>
<circle cx="677.56" cy="209.02" r="4.2" class="dot" opacity="0.62"/>
<circle cx="613.94" cy="301.73" r="4.2" class="dot" opacity="0.62"/>
<circle cx="525.00" cy="304.67" r="4.2" class="dot" opacity="0.9"/>
<circle cx="754.81" cy="210.53" r="4.2" class="dot" opacity="0.62"/>
<circle cx="335.67" cy="420.74" r="4.2" class="dot" opacity="0.62"/>
<circle cx="311.00" cy="434.16" r="4.2" class="dot" opacity="0.9"/>
<circle cx="563.71" cy="288.06" r="4.2" class="dot" opacity="0.62"/>
<circle cx="330.76" cy="436.13" r="4.2" class="dot" opacity="0.62"/>
<circle cx="361.41" cy="393.37" r="4.2" class="dot" opacity="0.9"/>
<circle cx="489.49" cy="325.14" r="4.2" class="dot" opacity="0.62"/>
<circle cx="706.03" cy="212.83" r="4.2" class="dot" opacity="0.62"/>
<circle cx="411.67" cy="381.74" r="4.2" class="dot" opacity="0.9"/>
<circle cx="642.63" cy="221.16" r="4.2" class="dot" opacity="0.62"/>
<circle cx="525.17" cy="273.56" r="4.2" class="dot" opacity="0.62"/>
<circle cx="461.89" cy="308.87" r="4.2" class="dot" opacity="0.9"/>
<circle cx="441.65" cy="374.63" r="4.2" class="dot" opacity="0.62"/>
<circle cx="513.69" cy="309.78" r="4.2" class="dot" opacity="0.62"/>
<circle cx="700.38" cy="257.36" r="4.2" class="dot" opacity="0.9"/>
<circle cx="442.72" cy="378.47" r="4.2" class="dot" opacity="0.62"/>
<circle cx="733.55" cy="246.53" r="4.2" class="dot" opacity="0.62"/>
<circle cx="473.51" cy="357.28" r="4.2" class="dot" opacity="0.9"/>
<circle cx="581.41" cy="303.24" r="4.2" class="dot" opacity="0.62"/>
<circle cx="657.18" cy="213.30" r="4.2" class="dot" opacity="0.62"/>
<circle cx="543.78" cy="303.40" r="4.2" class="dot" opacity="0.9"/>
<circle cx="864.93" cy="122.71" r="4.2" class="dot" opacity="0.62"/>
<circle cx="470.24" cy="376.73" r="4.2" class="dot" opacity="0.62"/>
<circle cx="598.69" cy="335.21" r="4.2" class="dot" opacity="0.9"/>
<circle cx="438.99" cy="389.89" r="4.2" class="dot" opacity="0.62"/>
<circle cx="725.14" cy="202.01" r="4.2" class="dot" opacity="0.62"/>
<circle cx="507.68" cy="289.29" r="4.2" class="dot" opacity="0.9"/>
<circle cx="505.66" cy="348.70" r="4.2" class="dot" opacity="0.62"/>
<circle cx="591.26" cy="280.75" r="4.2" class="dot" opacity="0.62"/>
<circle cx="596.34" cy="269.17" r="4.2" class="dot" opacity="0.9"/>
<circle cx="601.11" cy="260.81" r="4.2" class="dot" opacity="0.62"/>
<circle cx="380.74" cy="363.74" r="4.2" class="dot" opacity="0.62"/>
<circle cx="682.38" cy="209.24" r="4.2" class="dot" opacity="0.9"/>
<circle cx="791.43" cy="172.04" r="4.2" class="dot" opacity="0.62"/>
<circle cx="485.78" cy="329.43" r="4.2" class="dot" opacity="0.62"/>
<circle cx="651.58" cy="227.14" r="4.2" class="dot" opacity="0.9"/>
<circle cx="580.88" cy="264.85" r="4.2" class="dot" opacity="0.62"/>
<circle cx="788.38" cy="183.42" r="4.2" class="dot" opacity="0.62"/>
<circle cx="640.34" cy="251.28" r="4.2" class="dot" opacity="0.9"/>
<circle cx="583.46" cy="255.30" r="4.2" class="dot" opacity="0.62"/>
<circle cx="533.26" cy="303.27" r="4.2" class="dot" opacity="0.62"/>
<circle cx="311.52" cy="466.75" r="4.2" class="dot" opacity="0.9"/>
<circle cx="522.06" cy="331.58" r="4.2" class="dot" opacity="0.62"/>
<circle cx="632.08" cy="268.36" r="4.2" class="dot" opacity="0.62"/>
<circle cx="648.56" cy="196.03" r="4.2" class="dot" opacity="0.9"/>
<circle cx="681.89" cy="195.53" r="4.2" class="dot" opacity="0.62"/>
<circle cx="506.74" cy="326.58" r="4.2" class="dot" opacity="0.62"/>
<circle cx="571.64" cy="280.65" r="4.2" class="dot" opacity="0.9"/>
<circle cx="640.43" cy="242.10" r="4.2" class="dot" opacity="0.62"/>
<circle cx="476.70" cy="357.72" r="4.2" class="dot" opacity="0.62"/>
<circle cx="543.60" cy="293.09" r="4.2" class="dot" opacity="0.9"/>
<circle cx="522.75" cy="339.61" r="4.2" class="dot" opacity="0.62"/>
<circle cx="565.89" cy="273.73" r="4.2" class="dot" opacity="0.62"/>
<circle cx="556.79" cy="289.92" r="4.2" class="dot" opacity="0.9"/>
<circle cx="416.08" cy="337.43" r="4.2" class="dot" opacity="0.62"/>
<circle cx="461.62" cy="346.80" r="4.2" class="dot" opacity="0.62"/>
<circle cx="515.34" cy="271.18" r="4.2" class="dot" opacity="0.9"/>
<circle cx="641.15" cy="270.37" r="4.2" class="dot" opacity="0.62"/>
<circle cx="529.60" cy="326.85" r="4.2" class="dot" opacity="0.62"/>
<circle cx="622.87" cy="261.03" r="4.2" class="dot" opacity="0.9"/>
<circle cx="370.48" cy="437.73" r="4.2" class="dot" opacity="0.62"/>
<circle cx="484.47" cy="300.64" r="4.2" class="dot" opacity="0.62"/>
<circle cx="545.18" cy="260.45" r="4.2" class="dot" opacity="0.9"/>
<circle cx="470.21" cy="337.30" r="4.2" class="dot" opacity="0.62"/>
<circle cx="321.19" cy="411.03" r="4.2" class="dot" opacity="0.62"/>
<circle cx="338.63" cy="359.99" r="4.2" class="dot" opacity="0.9"/>
<circle cx="257.11" cy="467.52" r="4.2" class="dot" opacity="0.62"/>
<circle cx="699.37" cy="227.12" r="4.2" class="dot" opacity="0.62"/>
<circle cx="553.13" cy="271.80" r="4.2" class="dot" opacity="0.9"/>
<circle cx="532.67" cy="325.21" r="4.2" class="dot" opacity="0.62"/>
<circle cx="375.71" cy="401.62" r="4.2" class="dot" opacity="0.62"/>
<circle cx="627.95" cy="263.49" r="4.2" class="dot" opacity="0.9"/>
<circle cx="618.28" cy="254.54" r="4.2" class="dot" opacity="0.62"/>
<circle cx="434.51" cy="342.63" r="4.2" class="dot" opacity="0.62"/>
<circle cx="689.17" cy="200.29" r="4.2" class="dot" opacity="0.9"/>
<circle cx="662.93" cy="288.29" r="4.2" class="dot" opacity="0.62"/>
<circle cx="634.83" cy="238.65" r="4.2" class="dot" opacity="0.62"/>
<circle cx="613.26" cy="234.78" r="4.2" class="dot" opacity="0.9"/>
<circle cx="730.78" cy="190.18" r="4.2" class="dot" opacity="0.62"/>
<circle cx="356.85" cy="404.70" r="4.2" class="dot" opacity="0.62"/>
<circle cx="619.79" cy="290.04" r="4.2" class="dot" opacity="0.9"/>
<circle cx="636.56" cy="254.34" r="4.2" class="dot" opacity="0.62"/>
<circle cx="665.16" cy="229.79" r="4.2" class="dot" opacity="0.62"/>
<circle cx="428.98" cy="416.02" r="4.2" class="dot" opacity="0.9"/>
<circle cx="474.31" cy="385.18" r="4.2" class="dot" opacity="0.62"/>
<circle cx="447.45" cy="305.48" r="4.2" class="dot" opacity="0.62"/>
<circle cx="412.18" cy="363.56" r="4.2" class="dot" opacity="0.9"/>
<circle cx="657.16" cy="220.34" r="4.2" class="dot" opacity="0.62"/>
<circle cx="438.60" cy="344.94" r="4.2" class="dot" opacity="0.62"/>
<circle cx="617.01" cy="241.55" r="4.2" class="dot" opacity="0.9"/>
<circle cx="626.37" cy="269.89" r="4.2" class="dot" opacity="0.62"/>
<circle cx="542.10" cy="265.25" r="4.2" class="dot" opacity="0.62"/>
<circle cx="460.20" cy="366.24" r="4.2" class="dot" opacity="0.9"/>
<circle cx="605.23" cy="198.08" r="4.2" class="dot" opacity="0.62"/>
<circle cx="727.87" cy="238.04" r="4.2" class="dot" opacity="0.62"/>
<circle cx="631.97" cy="303.24" r="4.2" class="dot" opacity="0.9"/>
<circle cx="557.59" cy="252.00" r="4.2" class="dot" opacity="0.62"/>
<circle cx="518.28" cy="324.14" r="4.2" class="dot" opacity="0.62"/>
<circle cx="693.84" cy="256.81" r="4.2" class="dot" opacity="0.9"/>
<circle cx="489.73" cy="333.29" r="4.2" class="dot" opacity="0.62"/>
<circle cx="627.45" cy="237.43" r="4.2" class="dot" opacity="0.62"/>
<circle cx="466.31" cy="356.37" r="4.2" class="dot" opacity="0.9"/>
<circle cx="758.73" cy="188.87" r="4.2" class="dot" opacity="0.62"/>
<circle cx="520.39" cy="303.65" r="4.2" class="dot" opacity="0.62"/>
<circle cx="425.75" cy="338.40" r="4.2" class="dot" opacity="0.9"/>
<circle cx="574.73" cy="268.87" r="4.2" class="dot" opacity="0.62"/>
<circle cx="792.19" cy="176.80" r="4.2" class="dot" opacity="0.62"/>
<circle cx="513.45" cy="294.66" r="4.2" class="dot" opacity="0.9"/>
<circle cx="660.89" cy="229.15" r="4.2" class="dot" opacity="0.62"/>
<circle cx="595.43" cy="276.34" r="4.2" class="dot" opacity="0.62"/>
<circle cx="609.33" cy="250.58" r="4.2" class="dot" opacity="0.9"/>
<circle cx="758.40" cy="160.31" r="4.2" class="dot" opacity="0.62"/>
<circle cx="560.54" cy="230.36" r="4.2" class="dot" opacity="0.62"/>
<circle cx="438.44" cy="346.05" r="4.2" class="dot" opacity="0.9"/>
<circle cx="691.50" cy="250.33" r="4.2" class="dot" opacity="0.62"/>
<circle cx="641.67" cy="169.41" r="4.2" class="dot" opacity="0.62"/>
<circle cx="565.35" cy="287.26" r="4.2" class="dot" opacity="0.9"/>
<circle cx="726.92" cy="164.99" r="4.2" class="dot" opacity="0.62"/>
<circle cx="655.89" cy="238.80" r="4.2" class="dot" opacity="0.62"/>
<circle cx="579.51" cy="241.63" r="4.2" class="dot" opacity="0.9"/>
<circle cx="392.99" cy="332.16" r="4.2" class="dot" opacity="0.62"/>
<circle cx="616.55" cy="257.70" r="4.2" class="dot" opacity="0.62"/>
<circle cx="529.74" cy="360.94" r="4.2" class="dot" opacity="0.9"/>
<circle cx="701.74" cy="225.34" r="4.2" class="dot" opacity="0.62"/>
<circle cx="635.36" cy="220.16" r="4.2" class="dot" opacity="0.62"/>
<circle cx="595.07" cy="283.98" r="4.2" class="dot" opacity="0.9"/>
<circle cx="436.93" cy="377.54" r="4.2" class="dot" opacity="0.62"/>
<circle cx="673.78" cy="231.40" r="4.2" class="dot" opacity="0.62"/>
<circle cx="473.11" cy="354.70" r="4.2" class="dot" opacity="0.9"/>
<circle cx="441.31" cy="293.47" r="4.2" class="dot" opacity="0.62"/>
<circle cx="414.45" cy="388.51" r="4.2" class="dot" opacity="0.62"/>
<circle cx="668.25" cy="213.27" r="4.2" class="dot" opacity="0.9"/>
<circle cx="500.29" cy="371.90" r="4.2" class="dot" opacity="0.62"/>
<circle cx="548.52" cy="310.39" r="4.2" class="dot" opacity="0.62"/>
<circle cx="402.00" cy="366.20" r="4.2" class="dot" opacity="0.9"/>
<circle cx="617.60" cy="216.30" r="4.2" class="dot" opacity="0.62"/>
<circle cx="462.34" cy="368.98" r="4.2" class="dot" opacity="0.62"/>
<circle cx="566.46" cy="306.56" r="4.2" class="dot" opacity="0.9"/>
<circle cx="527.18" cy="327.51" r="4.2" class="dot" opacity="0.62"/>
<circle cx="540.24" cy="285.44" r="4.2" class="dot" opacity="0.62"/>
<circle cx="374.09" cy="439.83" r="4.2" class="dot" opacity="0.9"/>
<circle cx="490.82" cy="306.37" r="4.2" class="dot" opacity="0.62"/>
<circle cx="633.47" cy="232.30" r="4.2" class="dot" opacity="0.62"/>
<circle cx="335.98" cy="409.66" r="4.2" class="dot" opacity="0.9"/>
<circle cx="635.26" cy="242.20" r="4.2" class="dot" opacity="0.62"/>
<circle cx="642.89" cy="253.30" r="4.2" class="dot" opacity="0.62"/>
<circle cx="499.92" cy="302.93" r="4.2" class="dot" opacity="0.9"/>
<circle cx="757.22" cy="167.79" r="4.2" class="dot" opacity="0.62"/>
<circle cx="332.46" cy="372.84" r="4.2" class="dot" opacity="0.62"/>
<circle cx="651.69" cy="233.78" r="4.2" class="dot" opacity="0.9"/>
<circle cx="746.68" cy="193.27" r="4.2" class="dot" opacity="0.62"/>
<circle cx="411.99" cy="353.44" r="4.2" class="dot" opacity="0.62"/>
<circle cx="669.48" cy="201.88" r="4.2" class="dot" opacity="0.9"/>
<circle cx="604.74" cy="260.53" r="4.2" class="dot" opacity="0.62"/>
<circle cx="312.02" cy="447.06" r="4.2" class="dot" opacity="0.62"/>
<circle cx="545.94" cy="301.56" r="4.2" class="dot" opacity="0.9"/>
<circle cx="691.67" cy="225.18" r="4.2" class="dot" opacity="0.62"/>
<circle cx="434.99" cy="384.85" r="4.2" class="dot" opacity="0.62"/>
<circle cx="238.81" cy="492.78" r="4.2" class="dot" opacity="0.9"/>
<circle cx="465.18" cy="348.93" r="4.2" class="dot" opacity="0.62"/>
<circle cx="726.83" cy="228.13" r="4.2" class="dot" opacity="0.62"/>
<circle cx="764.76" cy="152.49" r="4.2" class="dot" opacity="0.9"/>
<circle cx="732.13" cy="209.94" r="4.2" class="dot" opacity="0.62"/>
<circle cx="701.67" cy="188.34" r="4.2" class="dot" opacity="0.62"/>
<circle cx="455.66" cy="336.43" r="4.2" class="dot" opacity="0.9"/>
<circle cx="399.59" cy="393.28" r="4.2" class="dot" opacity="0.62"/>
<circle cx="430.58" cy="368.07" r="4.2" class="dot" opacity="0.62"/>
<circle cx="413.24" cy="404.11" r="4.2" class="dot" opacity="0.9"/>
<circle cx="598.38" cy="276.22" r="4.2" class="dot" opacity="0.62"/>
<circle cx="486.22" cy="340.66" r="4.2" class="dot" opacity="0.62"/>
<circle cx="587.86" cy="248.52" r="4.2" class="dot" opacity="0.9"/>
<circle cx="638.45" cy="220.59" r="4.2" class="dot" opacity="0.62"/>
<circle cx="491.10" cy="331.34" r="4.2" class="dot" opacity="0.62"/>
<circle cx="440.71" cy="340.29" r="4.2" class="dot" opacity="0.9"/>
<circle cx="646.90" cy="210.82" r="4.2" class="dot" opacity="0.62"/>
<circle cx="340.34" cy="333.16" r="4.2" class="dot" opacity="0.62"/>
<circle cx="779.29" cy="158.44" r="4.2" class="dot" opacity="0.9"/>
<circle cx="495.00" cy="309.44" r="4.2" class="dot" opacity="0.62"/>
<circle cx="534.40" cy="259.69" r="4.2" class="dot" opacity="0.62"/>
<circle cx="505.69" cy="354.80" r="4.2" class="dot" opacity="0.9"/>
<circle cx="675.98" cy="207.66" r="4.2" class="dot" opacity="0.62"/>
<circle cx="594.00" cy="249.06" r="4.2" class="dot" opacity="0.62"/>
<circle cx="262.20" cy="455.89" r="4.2" class="dot" opacity="0.9"/>
<circle cx="749.77" cy="202.12" r="4.2" class="dot" opacity="0.62"/>
<circle cx="432.84" cy="325.68" r="4.2" class="dot" opacity="0.62"/>
<circle cx="576.06" cy="288.56" r="4.2" class="dot" opacity="0.9"/>
<circle cx="662.23" cy="202.10" r="4.2" class="dot" opacity="0.62"/>
<circle cx="644.57" cy="254.75" r="4.2" class="dot" opacity="0.62"/>
<circle cx="635.92" cy="211.40" r="4.2" class="dot" opacity="0.9"/>
<circle cx="388.59" cy="339.84" r="4.2" class="dot" opacity="0.62"/>
<circle cx="387.59" cy="360.75" r="4.2" class="dot" opacity="0.62"/>
<circle cx="372.29" cy="376.23" r="4.2" class="dot" opacity="0.9"/>
<circle cx="271.50" cy="461.37" r="4.2" class="dot" opacity="0.62"/>
<circle cx="469.37" cy="304.89" r="4.2" class="dot" opacity="0.62"/>
<circle cx="494.60" cy="378.77" r="4.2" class="dot" opacity="0.9"/>
<circle cx="510.30" cy="367.40" r="4.2" class="dot" opacity="0.62"/>
<circle cx="207.86" cy="503.52" r="4.2" class="dot" opacity="0.62"/>
<circle cx="469.91" cy="322.97" r="4.2" class="dot" opacity="0.9"/>
<circle cx="462.56" cy="358.97" r="4.2" class="dot" opacity="0.62"/>
<circle cx="843.87" cy="184.78" r="4.2" class="dot" opacity="0.62"/>
<circle cx="488.59" cy="274.63" r="4.2" class="dot" opacity="0.9"/>
<circle cx="507.65" cy="360.45" r="4.2" class="dot" opacity="0.62"/>
<circle cx="761.34" cy="174.01" r="4.2" class="dot" opacity="0.62"/>
<circle cx="369.15" cy="395.06" r="4.2" class="dot" opacity="0.9"/>
<circle cx="371.69" cy="386.70" r="4.2" class="dot" opacity="0.62"/>
<circle cx="503.84" cy="327.16" r="4.2" class="dot" opacity="0.62"/>
<circle cx="384.54" cy="371.07" r="4.2" class="dot" opacity="0.9"/>
<circle cx="753.26" cy="216.82" r="4.2" class="dot" opacity="0.62"/>
<circle cx="512.66" cy="299.47" r="4.2" class="dot" opacity="0.62"/>
<circle cx="378.07" cy="372.53" r="4.2" class="dot" opacity="0.9"/>
<circle cx="557.47" cy="304.79" r="4.2" class="dot" opacity="0.62"/>
<circle cx="609.36" cy="269.40" r="4.2" class="dot" opacity="0.62"/>
<circle cx="403.49" cy="325.04" r="4.2" class="dot" opacity="0.9"/>
<circle cx="689.50" cy="171.63" r="4.2" class="dot" opacity="0.62"/>
<circle cx="665.60" cy="169.53" r="4.2" class="dot" opacity="0.62"/>
<circle cx="414.13" cy="378.03" r="4.2" class="dot" opacity="0.9"/>
<circle cx="671.25" cy="207.66" r="4.2" class="dot" opacity="0.62"/>
<circle cx="662.33" cy="248.49" r="4.2" class="dot" opacity="0.62"/>
<circle cx="518.32" cy="302.26" r="4.2" class="dot" opacity="0.9"/>
<circle cx="368.03" cy="374.42" r="4.2" class="dot" opacity="0.62"/>
<circle cx="358.80" cy="393.03" r="4.2" class="dot" opacity="0.62"/>
<circle cx="574.43" cy="317.80" r="4.2" class="dot" opacity="0.9"/>
<circle cx="477.67" cy="358.82" r="4.2" class="dot" opacity="0.62"/>
<circle cx="548.67" cy="296.89" r="4.2" class="dot" opacity="0.62"/>
<circle cx="501.44" cy="343.95" r="4.2" class="dot" opacity="0.9"/>
<circle cx="650.51" cy="245.80" r="4.2" class="dot" opacity="0.62"/>
<circle cx="512.35" cy="322.47" r="4.2" class="dot" opacity="0.62"/>
<circle cx="619.92" cy="234.15" r="4.2" class="dot" opacity="0.9"/>
<circle cx="259.75" cy="450.83" r="4.2" class="dot" opacity="0.62"/>
<circle cx="787.89" cy="164.58" r="4.2" class="dot" opacity="0.62"/>
<circle cx="499.54" cy="352.86" r="4.2" class="dot" opacity="0.9"/>
<circle cx="701.85" cy="169.57" r="4.2" class="dot" opacity="0.62"/>
<circle cx="636.27" cy="247.60" r="4.2" class="dot" opacity="0.62"/>
<circle cx="341.66" cy="404.69" r="4.2" class="dot" opacity="0.9"/>
<circle cx="524.19" cy="279.09" r="4.2" class="dot" opacity="0.62"/>
<circle cx="427.24" cy="338.15" r="4.2" class="dot" opacity="0.62"/>
<circle cx="635.25" cy="189.01" r="4.2" class="dot" opacity="0.9"/>
<circle cx="578.66" cy="210.33" r="4.2" class="dot" opacity="0.62"/>
<circle cx="531.57" cy="258.56" r="4.2" class="dot" opacity="0.62"/>
<circle cx="514.56" cy="391.33" r="4.2" class="dot" opacity="0.9"/>
<circle cx="629.34" cy="239.11" r="4.2" class="dot" opacity="0.62"/>
<circle cx="888.57" cy="168.10" r="4.2" class="dot" opacity="0.62"/>
<circle cx="563.36" cy="271.14" r="4.2" class="dot" opacity="0.9"/>
<circle cx="413.67" cy="326.79" r="4.2" class="dot" opacity="0.62"/>
<circle cx="410.00" cy="352.65" r="4.2" class="dot" opacity="0.62"/>
<circle cx="648.92" cy="189.54" r="4.2" class="dot" opacity="0.9"/>
<circle cx="387.95" cy="431.92" r="4.2" class="dot" opacity="0.62"/>
<circle cx="608.59" cy="308.31" r="4.2" class="dot" opacity="0.62"/>
<circle cx="448.67" cy="319.62" r="4.2" class="dot" opacity="0.9"/>
<circle cx="768.60" cy="165.52" r="4.2" class="dot" opacity="0.62"/>
<circle cx="506.58" cy="335.42" r="4.2" class="dot" opacity="0.62"/>
<circle cx="394.24" cy="383.89" r="4.2" class="dot" opacity="0.9"/>
<circle cx="499.50" cy="311.21" r="4.2" class="dot" opacity="0.62"/>
<circle cx="564.47" cy="279.24" r="4.2" class="dot" opacity="0.62"/>
<circle cx="501.56" cy="286.76" r="4.2" class="dot" opacity="0.9"/>
<circle cx="456.27" cy="373.64" r="4.2" class="dot" opacity="0.62"/>
<circle cx="817.31" cy="213.80" r="4.2" class="dot" opacity="0.62"/>
<circle cx="632.02" cy="244.63" r="4.2" class="dot" opacity="0.9"/>
<circle cx="489.27" cy="311.29" r="4.2" class="dot" opacity="0.62"/>
<circle cx="580.63" cy="241.98" r="4.2" class="dot" opacity="0.62"/>
<circle cx="586.86" cy="331.53" r="4.2" class="dot" opacity="0.9"/>
<circle cx="568.51" cy="200.58" r="4.2" class="dot" opacity="0.62"/>
<circle cx="534.23" cy="330.70" r="4.2" class="dot" opacity="0.62"/>
<circle cx="435.68" cy="338.87" r="4.2" class="dot" opacity="0.9"/>
<circle cx="424.47" cy="393.05" r="4.2" class="dot" opacity="0.62"/>
<circle cx="634.06" cy="197.82" r="4.2" class="dot" opacity="0.62"/>
<circle cx="549.12" cy="318.49" r="4.2" class="dot" opacity="0.9"/>
<circle cx="518.13" cy="333.54" r="4.2" class="dot" opacity="0.62"/>
<circle cx="131.43" cy="498.25" r="4.2" class="dot" opacity="0.62"/>
<circle cx="492.06" cy="279.54" r="4.2" class="dot" opacity="0.9"/>
<circle cx="623.42" cy="241.34" r="4.2" class="dot" opacity="0.62"/>
<circle cx="398.43" cy="384.10" r="4.2" class="dot" opacity="0.62"/>
<circle cx="794.30" cy="142.32" r="4.2" class="dot" opacity="0.9"/>
<circle cx="277.32" cy="487.35" r="4.2" class="dot" opacity="0.62"/>
  <line x1="86.00" y1="548.28" x2="934.00" y2="82.82" class="fit"/>
  <text x="510" y="606" class="label" text-anchor="middle">Independent variable (IV)</text>
  <text x="24" y="313" class="label" text-anchor="middle" transform="rotate(-90 24 313)">Dependent variable (DV)</text>
</svg>
