<?xml version="1.0" encoding="UTF-8"?>
<svg xmlns="http://www.w3.org/2000/svg" width="980" height="620" viewBox="0 0 980 620" role="img" aria-label="Part B Transformation">
  <defs>
    <linearGradient id="bg" x1="0" x2="1" y1="0" y2="1"><stop offset="0" stop-color="#ffffff"/><stop offset="0.58" stop-color="#f6faff"/><stop offset="1" stop-color="#eef5ff"/></linearGradient>
    <linearGradient id="line" x1="0" x2="1"><stop offset="0" stop-color="#80ffe0"/><stop offset="1" stop-color="#a98bff"/></linearGradient>
    <filter id="glow"><feGaussianBlur stdDeviation="4" result="blur"/><feMerge><feMergeNode in="blur"/><feMergeNode in="SourceGraphic"/></feMerge></filter>
  </defs>
  <style>
    .title{font:700 29px 'Space Mono', Consolas, monospace;fill:#18213a;letter-spacing:.5px}.sub{font:14px 'Space Mono', Consolas, monospace;fill:#5d6d83}.axis,.frame{stroke:#4d6178;stroke-width:1.2}.grid{stroke:#d9e5f4;stroke-width:1}.tick{font:12px 'Space Mono', Consolas, monospace;fill:#66758a}.label{font:13px 'Space Mono', Consolas, monospace;fill:#4f6077}.dot{fill:#00a68a;filter:url(#glow)}.fit{stroke:url(#line);stroke-width:4;stroke-linecap:round;filter:url(#glow)}
  </style>
  <rect width="980" height="620" rx="28" fill="url(#bg)"/>
  <circle cx="835" cy="80" r="150" fill="#80ffe0" opacity="0.18"/>
  <circle cx="120" cy="540" r="180" fill="#a98bff" opacity="0.12"/>
  <text x="86" y="46" class="title">Part B Transformation</text>
  <text x="86" y="72" class="sub">Actual transformed model: y^2 ~ 1/x</text>
  <rect x="86" y="92" width="848" height="442" rx="18" fill="#fbfdff" stroke="#d7e2f1"/>
  <line x1="86" y1="92" x2="86" y2="534" class="grid"/><line x1="86" y1="534" x2="934" y2="534" class="grid"/><text x="86" y="578" class="tick" text-anchor="middle">0.41</text><text x="68" y="538" class="tick" text-anchor="end">3.0</text>
<line x1="298" y1="92" x2="298" y2="534" class="grid"/><line x1="86" y1="423.5" x2="934" y2="423.5" class="grid"/><text x="298" y="578" class="tick" text-anchor="middle">0.83</text><text x="68" y="427.5" class="tick" text-anchor="end">5.8</text>
<line x1="510" y1="92" x2="510" y2="534" class="grid"/><line x1="86" y1="313" x2="934" y2="313" class="grid"/><text x="510" y="578" class="tick" text-anchor="middle">1.24</text><text x="68" y="317" class="tick" text-anchor="end">8.6</text>
<line x1="722" y1="92" x2="722" y2="534" class="grid"/><line x1="86" y1="202.50000000000006" x2="934" y2="202.50000000000006" class="grid"/><text x="722" y="578" class="tick" text-anchor="middle">1.66</text><text x="68" y="206.50000000000006" class="tick" text-anchor="end">11.4</text>
<line x1="934" y1="92" x2="934" y2="534" class="grid"/><line x1="86" y1="92" x2="934" y2="92" class="grid"/><text x="934" y="578" class="tick" text-anchor="middle">2.08</text><text x="68" y="96" class="tick" text-anchor="end">14.2</text>
  <line x1="86" y1="534" x2="934" y2="534" class="axis"/>
  <line x1="86" y1="92" x2="86" y2="534" class="axis"/>
  <circle cx="357.45" cy="352.33" r="4.2" class="dot" opacity="0.9"/>
<circle cx="478.31" cy="329.88" r="4.2" class="dot" opacity="0.62"/>
<circle cx="442.82" cy="304.31" r="4.2" class="dot" opacity="0.62"/>
<circle cx="589.77" cy="281.03" r="4.2" class="dot" opacity="0.9"/>
<circle cx="730.13" cy="236.20" r="4.2" class="dot" opacity="0.62"/>
<circle cx="298.15" cy="456.35" r="4.2" class="dot" opacity="0.62"/>
<circle cx="137.52" cy="382.70" r="4.2" class="dot" opacity="0.9"/>
<circle cx="195.17" cy="380.46" r="4.2" class="dot" opacity="0.62"/>
<circle cx="282.25" cy="311.27" r="4.2" class="dot" opacity="0.62"/>
<circle cx="521.29" cy="310.49" r="4.2" class="dot" opacity="0.9"/>
<circle cx="169.19" cy="446.81" r="4.2" class="dot" opacity="0.62"/>
<circle cx="179.52" cy="468.96" r="4.2" class="dot" opacity="0.62"/>
<circle cx="217.59" cy="352.88" r="4.2" class="dot" opacity="0.9"/>
<circle cx="323.86" cy="287.44" r="4.2" class="dot" opacity="0.62"/>
<circle cx="497.85" cy="245.86" r="4.2" class="dot" opacity="0.62"/>
<circle cx="334.38" cy="297.95" r="4.2" class="dot" opacity="0.9"/>
<circle cx="634.70" cy="297.98" r="4.2" class="dot" opacity="0.62"/>
<circle cx="361.90" cy="316.22" r="4.2" class="dot" opacity="0.62"/>
<circle cx="211.53" cy="322.66" r="4.2" class="dot" opacity="0.9"/>
<circle cx="356.49" cy="339.30" r="4.2" class="dot" opacity="0.62"/>
<circle cx="251.44" cy="334.40" r="4.2" class="dot" opacity="0.62"/>
<circle cx="254.79" cy="395.58" r="4.2" class="dot" opacity="0.9"/>
<circle cx="486.14" cy="314.69" r="4.2" class="dot" opacity="0.62"/>
<circle cx="258.24" cy="356.90" r="4.2" class="dot" opacity="0.62"/>
<circle cx="445.56" cy="318.86" r="4.2" class="dot" opacity="0.9"/>
<circle cx="332.75" cy="292.01" r="4.2" class="dot" opacity="0.62"/>
<circle cx="271.78" cy="352.14" r="4.2" class="dot" opacity="0.62"/>
<circle cx="352.32" cy="286.74" r="4.2" class="dot" opacity="0.9"/>
<circle cx="364.22" cy="302.78" r="4.2" class="dot" opacity="0.62"/>
<circle cx="420.79" cy="291.92" r="4.2" class="dot" opacity="0.62"/>
<circle cx="474.78" cy="276.32" r="4.2" class="dot" opacity="0.9"/>
<circle cx="297.51" cy="340.58" r="4.2" class="dot" opacity="0.62"/>
<circle cx="148.97" cy="327.53" r="4.2" class="dot" opacity="0.62"/>
<circle cx="185.07" cy="342.22" r="4.2" class="dot" opacity="0.9"/>
<circle cx="277.95" cy="342.66" r="4.2" class="dot" opacity="0.62"/>
<circle cx="201.74" cy="335.76" r="4.2" class="dot" opacity="0.62"/>
<circle cx="197.64" cy="288.88" r="4.2" class="dot" opacity="0.9"/>
<circle cx="401.81" cy="271.26" r="4.2" class="dot" opacity="0.62"/>
<circle cx="176.97" cy="360.80" r="4.2" class="dot" opacity="0.62"/>
<circle cx="151.24" cy="410.65" r="4.2" class="dot" opacity="0.9"/>
<circle cx="620.93" cy="253.93" r="4.2" class="dot" opacity="0.62"/>
<circle cx="178.59" cy="375.32" r="4.2" class="dot" opacity="0.62"/>
<circle cx="783.97" cy="199.17" r="4.2" class="dot" opacity="0.9"/>
<circle cx="868.24" cy="180.11" r="4.2" class="dot" opacity="0.62"/>
<circle cx="331.34" cy="345.84" r="4.2" class="dot" opacity="0.62"/>
<circle cx="192.80" cy="387.95" r="4.2" class="dot" opacity="0.9"/>
<circle cx="160.94" cy="383.01" r="4.2" class="dot" opacity="0.62"/>
<circle cx="867.54" cy="219.54" r="4.2" class="dot" opacity="0.62"/>
<circle cx="200.63" cy="411.05" r="4.2" class="dot" opacity="0.9"/>
<circle cx="403.85" cy="249.34" r="4.2" class="dot" opacity="0.62"/>
<circle cx="380.10" cy="358.69" r="4.2" class="dot" opacity="0.62"/>
<circle cx="204.84" cy="458.84" r="4.2" class="dot" opacity="0.9"/>
<circle cx="157.27" cy="351.42" r="4.2" class="dot" opacity="0.62"/>
<circle cx="315.00" cy="322.31" r="4.2" class="dot" opacity="0.62"/>
<circle cx="375.32" cy="321.59" r="4.2" class="dot" opacity="0.9"/>
<circle cx="148.26" cy="333.21" r="4.2" class="dot" opacity="0.62"/>
<circle cx="294.01" cy="366.10" r="4.2" class="dot" opacity="0.62"/>
<circle cx="230.70" cy="383.65" r="4.2" class="dot" opacity="0.9"/>
<circle cx="696.85" cy="291.25" r="4.2" class="dot" opacity="0.62"/>
<circle cx="133.00" cy="427.43" r="4.2" class="dot" opacity="0.62"/>
<circle cx="278.19" cy="323.55" r="4.2" class="dot" opacity="0.9"/>
<circle cx="206.04" cy="345.45" r="4.2" class="dot" opacity="0.62"/>
<circle cx="159.28" cy="405.88" r="4.2" class="dot" opacity="0.62"/>
<circle cx="198.68" cy="453.66" r="4.2" class="dot" opacity="0.9"/>
<circle cx="141.79" cy="393.57" r="4.2" class="dot" opacity="0.62"/>
<circle cx="215.90" cy="331.29" r="4.2" class="dot" opacity="0.62"/>
<circle cx="522.80" cy="292.43" r="4.2" class="dot" opacity="0.9"/>
<circle cx="160.43" cy="377.83" r="4.2" class="dot" opacity="0.62"/>
<circle cx="179.29" cy="362.71" r="4.2" class="dot" opacity="0.62"/>
<circle cx="170.93" cy="360.30" r="4.2" class="dot" opacity="0.9"/>
<circle cx="676.70" cy="263.34" r="4.2" class="dot" opacity="0.62"/>
<circle cx="476.05" cy="251.55" r="4.2" class="dot" opacity="0.62"/>
<circle cx="181.91" cy="400.98" r="4.2" class="dot" opacity="0.9"/>
<circle cx="145.93" cy="437.09" r="4.2" class="dot" opacity="0.62"/>
<circle cx="263.60" cy="324.41" r="4.2" class="dot" opacity="0.62"/>
<circle cx="206.11" cy="422.00" r="4.2" class="dot" opacity="0.9"/>
<circle cx="145.40" cy="324.15" r="4.2" class="dot" opacity="0.62"/>
<circle cx="168.63" cy="357.19" r="4.2" class="dot" opacity="0.62"/>
<circle cx="558.97" cy="272.11" r="4.2" class="dot" opacity="0.9"/>
<circle cx="174.10" cy="358.91" r="4.2" class="dot" opacity="0.62"/>
<circle cx="205.57" cy="384.62" r="4.2" class="dot" opacity="0.62"/>
<circle cx="178.85" cy="411.92" r="4.2" class="dot" opacity="0.9"/>
<circle cx="239.22" cy="410.28" r="4.2" class="dot" opacity="0.62"/>
<circle cx="229.78" cy="327.57" r="4.2" class="dot" opacity="0.62"/>
<circle cx="235.87" cy="337.46" r="4.2" class="dot" opacity="0.9"/>
<circle cx="599.42" cy="299.49" r="4.2" class="dot" opacity="0.62"/>
<circle cx="253.43" cy="402.55" r="4.2" class="dot" opacity="0.62"/>
<circle cx="219.80" cy="391.41" r="4.2" class="dot" opacity="0.9"/>
<circle cx="594.18" cy="271.82" r="4.2" class="dot" opacity="0.62"/>
<circle cx="147.90" cy="428.34" r="4.2" class="dot" opacity="0.62"/>
<circle cx="606.57" cy="223.18" r="4.2" class="dot" opacity="0.9"/>
<circle cx="199.38" cy="382.51" r="4.2" class="dot" opacity="0.62"/>
<circle cx="167.38" cy="339.24" r="4.2" class="dot" opacity="0.62"/>
<circle cx="830.16" cy="206.67" r="4.2" class="dot" opacity="0.9"/>
<circle cx="155.81" cy="443.86" r="4.2" class="dot" opacity="0.62"/>
<circle cx="205.55" cy="374.47" r="4.2" class="dot" opacity="0.62"/>
<circle cx="290.90" cy="373.48" r="4.2" class="dot" opacity="0.9"/>
<circle cx="175.64" cy="425.98" r="4.2" class="dot" opacity="0.62"/>
<circle cx="272.58" cy="318.38" r="4.2" class="dot" opacity="0.62"/>
<circle cx="563.29" cy="355.85" r="4.2" class="dot" opacity="0.9"/>
<circle cx="615.91" cy="267.66" r="4.2" class="dot" opacity="0.62"/>
<circle cx="149.53" cy="378.99" r="4.2" class="dot" opacity="0.62"/>
<circle cx="369.02" cy="344.51" r="4.2" class="dot" opacity="0.9"/>
<circle cx="587.39" cy="243.48" r="4.2" class="dot" opacity="0.62"/>
<circle cx="291.73" cy="405.83" r="4.2" class="dot" opacity="0.62"/>
<circle cx="239.26" cy="332.54" r="4.2" class="dot" opacity="0.9"/>
<circle cx="181.83" cy="413.98" r="4.2" class="dot" opacity="0.62"/>
<circle cx="232.42" cy="360.39" r="4.2" class="dot" opacity="0.62"/>
<circle cx="448.93" cy="322.52" r="4.2" class="dot" opacity="0.9"/>
<circle cx="404.47" cy="305.68" r="4.2" class="dot" opacity="0.62"/>
<circle cx="831.42" cy="253.89" r="4.2" class="dot" opacity="0.62"/>
<circle cx="152.05" cy="372.61" r="4.2" class="dot" opacity="0.9"/>
<circle cx="683.37" cy="275.85" r="4.2" class="dot" opacity="0.62"/>
<circle cx="244.96" cy="361.64" r="4.2" class="dot" opacity="0.62"/>
<circle cx="832.83" cy="223.78" r="4.2" class="dot" opacity="0.9"/>
<circle cx="355.11" cy="372.36" r="4.2" class="dot" opacity="0.62"/>
<circle cx="752.89" cy="255.57" r="4.2" class="dot" opacity="0.62"/>
<circle cx="700.47" cy="257.46" r="4.2" class="dot" opacity="0.9"/>
<circle cx="251.88" cy="379.60" r="4.2" class="dot" opacity="0.62"/>
<circle cx="244.51" cy="372.33" r="4.2" class="dot" opacity="0.62"/>
<circle cx="249.87" cy="393.92" r="4.2" class="dot" opacity="0.9"/>
<circle cx="410.96" cy="290.31" r="4.2" class="dot" opacity="0.62"/>
<circle cx="479.61" cy="241.50" r="4.2" class="dot" opacity="0.62"/>
<circle cx="254.41" cy="426.45" r="4.2" class="dot" opacity="0.9"/>
<circle cx="283.21" cy="366.71" r="4.2" class="dot" opacity="0.62"/>
<circle cx="280.46" cy="378.71" r="4.2" class="dot" opacity="0.62"/>
<circle cx="676.56" cy="267.78" r="4.2" class="dot" opacity="0.9"/>
<circle cx="141.71" cy="349.86" r="4.2" class="dot" opacity="0.62"/>
<circle cx="180.09" cy="441.91" r="4.2" class="dot" opacity="0.62"/>
<circle cx="152.79" cy="363.86" r="4.2" class="dot" opacity="0.9"/>
<circle cx="324.10" cy="326.09" r="4.2" class="dot" opacity="0.62"/>
<circle cx="278.31" cy="440.17" r="4.2" class="dot" opacity="0.62"/>
<circle cx="147.25" cy="325.02" r="4.2" class="dot" opacity="0.9"/>
<circle cx="350.60" cy="299.55" r="4.2" class="dot" opacity="0.62"/>
<circle cx="409.62" cy="364.34" r="4.2" class="dot" opacity="0.62"/>
<circle cx="181.30" cy="384.37" r="4.2" class="dot" opacity="0.9"/>
<circle cx="203.74" cy="410.10" r="4.2" class="dot" opacity="0.62"/>
<circle cx="391.28" cy="256.13" r="4.2" class="dot" opacity="0.62"/>
<circle cx="296.20" cy="308.42" r="4.2" class="dot" opacity="0.9"/>
<circle cx="584.31" cy="282.06" r="4.2" class="dot" opacity="0.62"/>
<circle cx="594.13" cy="269.46" r="4.2" class="dot" opacity="0.62"/>
<circle cx="276.91" cy="373.57" r="4.2" class="dot" opacity="0.9"/>
<circle cx="225.75" cy="392.48" r="4.2" class="dot" opacity="0.62"/>
<circle cx="299.85" cy="372.89" r="4.2" class="dot" opacity="0.62"/>
<circle cx="133.39" cy="331.55" r="4.2" class="dot" opacity="0.9"/>
<circle cx="338.12" cy="375.40" r="4.2" class="dot" opacity="0.62"/>
<circle cx="401.24" cy="324.08" r="4.2" class="dot" opacity="0.62"/>
<circle cx="388.20" cy="303.23" r="4.2" class="dot" opacity="0.9"/>
<circle cx="269.40" cy="295.47" r="4.2" class="dot" opacity="0.62"/>
<circle cx="312.03" cy="380.41" r="4.2" class="dot" opacity="0.62"/>
<circle cx="186.69" cy="421.48" r="4.2" class="dot" opacity="0.9"/>
<circle cx="754.84" cy="261.26" r="4.2" class="dot" opacity="0.62"/>
<circle cx="133.14" cy="464.74" r="4.2" class="dot" opacity="0.62"/>
<circle cx="590.34" cy="243.19" r="4.2" class="dot" opacity="0.9"/>
<circle cx="245.74" cy="403.93" r="4.2" class="dot" opacity="0.62"/>
<circle cx="285.00" cy="359.59" r="4.2" class="dot" opacity="0.62"/>
<circle cx="180.29" cy="352.18" r="4.2" class="dot" opacity="0.9"/>
<circle cx="287.19" cy="389.94" r="4.2" class="dot" opacity="0.62"/>
<circle cx="160.65" cy="367.37" r="4.2" class="dot" opacity="0.62"/>
<circle cx="382.84" cy="330.78" r="4.2" class="dot" opacity="0.9"/>
<circle cx="351.44" cy="367.82" r="4.2" class="dot" opacity="0.62"/>
<circle cx="203.30" cy="416.14" r="4.2" class="dot" opacity="0.62"/>
<circle cx="199.73" cy="430.33" r="4.2" class="dot" opacity="0.9"/>
<circle cx="642.41" cy="233.63" r="4.2" class="dot" opacity="0.62"/>
<circle cx="139.21" cy="361.84" r="4.2" class="dot" opacity="0.62"/>
<circle cx="248.91" cy="354.42" r="4.2" class="dot" opacity="0.9"/>
<circle cx="843.44" cy="195.14" r="4.2" class="dot" opacity="0.62"/>
<circle cx="137.56" cy="400.81" r="4.2" class="dot" opacity="0.62"/>
<circle cx="138.79" cy="433.47" r="4.2" class="dot" opacity="0.9"/>
<circle cx="661.12" cy="230.17" r="4.2" class="dot" opacity="0.62"/>
<circle cx="199.89" cy="374.39" r="4.2" class="dot" opacity="0.62"/>
<circle cx="145.44" cy="382.09" r="4.2" class="dot" opacity="0.9"/>
<circle cx="221.93" cy="434.69" r="4.2" class="dot" opacity="0.62"/>
<circle cx="164.87" cy="394.51" r="4.2" class="dot" opacity="0.62"/>
<circle cx="250.57" cy="343.20" r="4.2" class="dot" opacity="0.9"/>
<circle cx="166.12" cy="350.28" r="4.2" class="dot" opacity="0.62"/>
<circle cx="337.04" cy="274.34" r="4.2" class="dot" opacity="0.62"/>
<circle cx="340.40" cy="313.08" r="4.2" class="dot" opacity="0.9"/>
<circle cx="418.96" cy="304.42" r="4.2" class="dot" opacity="0.62"/>
<circle cx="350.25" cy="336.02" r="4.2" class="dot" opacity="0.62"/>
<circle cx="493.49" cy="276.91" r="4.2" class="dot" opacity="0.9"/>
<circle cx="462.91" cy="286.40" r="4.2" class="dot" opacity="0.62"/>
<circle cx="755.59" cy="187.58" r="4.2" class="dot" opacity="0.62"/>
<circle cx="190.59" cy="417.34" r="4.2" class="dot" opacity="0.9"/>
<circle cx="281.07" cy="293.95" r="4.2" class="dot" opacity="0.62"/>
<circle cx="827.37" cy="168.64" r="4.2" class="dot" opacity="0.62"/>
<circle cx="160.28" cy="357.22" r="4.2" class="dot" opacity="0.9"/>
<circle cx="163.40" cy="405.72" r="4.2" class="dot" opacity="0.62"/>
<circle cx="164.39" cy="355.12" r="4.2" class="dot" opacity="0.62"/>
<circle cx="228.36" cy="335.97" r="4.2" class="dot" opacity="0.9"/>
<circle cx="247.64" cy="369.31" r="4.2" class="dot" opacity="0.62"/>
<circle cx="852.63" cy="199.36" r="4.2" class="dot" opacity="0.62"/>
<circle cx="491.92" cy="319.40" r="4.2" class="dot" opacity="0.9"/>
<circle cx="600.75" cy="242.00" r="4.2" class="dot" opacity="0.62"/>
<circle cx="139.72" cy="393.74" r="4.2" class="dot" opacity="0.62"/>
<circle cx="770.02" cy="253.02" r="4.2" class="dot" opacity="0.9"/>
<circle cx="434.05" cy="342.71" r="4.2" class="dot" opacity="0.62"/>
<circle cx="366.41" cy="354.53" r="4.2" class="dot" opacity="0.62"/>
<circle cx="137.07" cy="317.70" r="4.2" class="dot" opacity="0.9"/>
<circle cx="427.78" cy="329.94" r="4.2" class="dot" opacity="0.62"/>
<circle cx="401.09" cy="366.75" r="4.2" class="dot" opacity="0.62"/>
<circle cx="162.19" cy="364.13" r="4.2" class="dot" opacity="0.9"/>
<circle cx="840.87" cy="197.70" r="4.2" class="dot" opacity="0.62"/>
<circle cx="648.64" cy="325.61" r="4.2" class="dot" opacity="0.62"/>
<circle cx="338.74" cy="268.80" r="4.2" class="dot" opacity="0.9"/>
<circle cx="415.05" cy="304.07" r="4.2" class="dot" opacity="0.62"/>
<circle cx="195.96" cy="383.00" r="4.2" class="dot" opacity="0.62"/>
<circle cx="232.55" cy="375.89" r="4.2" class="dot" opacity="0.9"/>
<circle cx="168.74" cy="426.12" r="4.2" class="dot" opacity="0.62"/>
<circle cx="195.31" cy="367.19" r="4.2" class="dot" opacity="0.62"/>
<circle cx="146.58" cy="419.00" r="4.2" class="dot" opacity="0.9"/>
<circle cx="843.89" cy="122.48" r="4.2" class="dot" opacity="0.62"/>
<circle cx="131.67" cy="370.96" r="4.2" class="dot" opacity="0.62"/>
<circle cx="231.63" cy="341.04" r="4.2" class="dot" opacity="0.9"/>
<circle cx="268.84" cy="342.56" r="4.2" class="dot" opacity="0.62"/>
<circle cx="429.67" cy="371.29" r="4.2" class="dot" opacity="0.62"/>
<circle cx="221.52" cy="305.57" r="4.2" class="dot" opacity="0.9"/>
<circle cx="147.07" cy="367.24" r="4.2" class="dot" opacity="0.62"/>
<circle cx="162.29" cy="416.74" r="4.2" class="dot" opacity="0.62"/>
<circle cx="435.08" cy="365.65" r="4.2" class="dot" opacity="0.9"/>
<circle cx="279.12" cy="361.70" r="4.2" class="dot" opacity="0.62"/>
<circle cx="511.03" cy="263.48" r="4.2" class="dot" opacity="0.62"/>
<circle cx="279.68" cy="380.16" r="4.2" class="dot" opacity="0.9"/>
<circle cx="371.95" cy="311.81" r="4.2" class="dot" opacity="0.62"/>
<circle cx="401.67" cy="326.30" r="4.2" class="dot" opacity="0.62"/>
<circle cx="133.95" cy="400.95" r="4.2" class="dot" opacity="0.9"/>
<circle cx="778.46" cy="196.37" r="4.2" class="dot" opacity="0.62"/>
<circle cx="249.08" cy="398.45" r="4.2" class="dot" opacity="0.62"/>
<circle cx="467.02" cy="257.88" r="4.2" class="dot" opacity="0.9"/>
<circle cx="596.28" cy="270.74" r="4.2" class="dot" opacity="0.62"/>
<circle cx="367.10" cy="341.56" r="4.2" class="dot" opacity="0.62"/>
<circle cx="433.40" cy="372.66" r="4.2" class="dot" opacity="0.9"/>
<circle cx="389.70" cy="341.26" r="4.2" class="dot" opacity="0.62"/>
<circle cx="644.52" cy="259.63" r="4.2" class="dot" opacity="0.62"/>
<circle cx="212.08" cy="327.86" r="4.2" class="dot" opacity="0.9"/>
<circle cx="151.96" cy="403.45" r="4.2" class="dot" opacity="0.62"/>
<circle cx="224.42" cy="410.48" r="4.2" class="dot" opacity="0.62"/>
<circle cx="482.63" cy="301.30" r="4.2" class="dot" opacity="0.9"/>
<circle cx="172.64" cy="354.03" r="4.2" class="dot" opacity="0.62"/>
<circle cx="287.53" cy="332.41" r="4.2" class="dot" opacity="0.62"/>
<circle cx="152.43" cy="383.63" r="4.2" class="dot" opacity="0.9"/>
<circle cx="365.51" cy="342.68" r="4.2" class="dot" opacity="0.62"/>
<circle cx="156.01" cy="316.08" r="4.2" class="dot" opacity="0.62"/>
<circle cx="308.80" cy="335.48" r="4.2" class="dot" opacity="0.9"/>
<circle cx="154.75" cy="405.24" r="4.2" class="dot" opacity="0.62"/>
<circle cx="453.32" cy="280.82" r="4.2" class="dot" opacity="0.62"/>
<circle cx="197.89" cy="391.35" r="4.2" class="dot" opacity="0.9"/>
<circle cx="277.44" cy="422.75" r="4.2" class="dot" opacity="0.62"/>
<circle cx="181.30" cy="390.30" r="4.2" class="dot" opacity="0.62"/>
<circle cx="658.55" cy="232.74" r="4.2" class="dot" opacity="0.9"/>
<circle cx="303.64" cy="347.81" r="4.2" class="dot" opacity="0.62"/>
<circle cx="761.47" cy="244.24" r="4.2" class="dot" opacity="0.62"/>
<circle cx="141.44" cy="368.38" r="4.2" class="dot" opacity="0.9"/>
<circle cx="228.28" cy="391.59" r="4.2" class="dot" opacity="0.62"/>
<circle cx="167.43" cy="367.13" r="4.2" class="dot" opacity="0.62"/>
<circle cx="216.70" cy="335.45" r="4.2" class="dot" opacity="0.9"/>
<circle cx="651.67" cy="262.76" r="4.2" class="dot" opacity="0.62"/>
<circle cx="211.02" cy="325.42" r="4.2" class="dot" opacity="0.62"/>
<circle cx="372.16" cy="354.75" r="4.2" class="dot" opacity="0.9"/>
<circle cx="176.26" cy="367.81" r="4.2" class="dot" opacity="0.62"/>
<circle cx="153.68" cy="342.63" r="4.2" class="dot" opacity="0.62"/>
<circle cx="293.15" cy="384.85" r="4.2" class="dot" opacity="0.9"/>
<circle cx="145.36" cy="374.92" r="4.2" class="dot" opacity="0.62"/>
<circle cx="453.68" cy="306.22" r="4.2" class="dot" opacity="0.62"/>
<circle cx="532.80" cy="308.38" r="4.2" class="dot" opacity="0.9"/>
<circle cx="466.79" cy="316.84" r="4.2" class="dot" opacity="0.62"/>
<circle cx="274.15" cy="356.61" r="4.2" class="dot" opacity="0.62"/>
<circle cx="184.81" cy="382.97" r="4.2" class="dot" opacity="0.9"/>
<circle cx="175.37" cy="406.56" r="4.2" class="dot" opacity="0.62"/>
<circle cx="150.47" cy="400.04" r="4.2" class="dot" opacity="0.62"/>
<circle cx="593.54" cy="265.00" r="4.2" class="dot" opacity="0.9"/>
<circle cx="167.51" cy="439.79" r="4.2" class="dot" opacity="0.62"/>
<circle cx="140.05" cy="402.65" r="4.2" class="dot" opacity="0.62"/>
<circle cx="579.01" cy="289.51" r="4.2" class="dot" opacity="0.9"/>
<circle cx="332.89" cy="349.16" r="4.2" class="dot" opacity="0.62"/>
<circle cx="165.21" cy="328.84" r="4.2" class="dot" opacity="0.62"/>
<circle cx="222.25" cy="334.99" r="4.2" class="dot" opacity="0.9"/>
<circle cx="131.94" cy="339.26" r="4.2" class="dot" opacity="0.62"/>
<circle cx="199.10" cy="423.66" r="4.2" class="dot" opacity="0.62"/>
<circle cx="403.20" cy="288.57" r="4.2" class="dot" opacity="0.9"/>
<circle cx="258.82" cy="308.25" r="4.2" class="dot" opacity="0.62"/>
<circle cx="138.30" cy="467.66" r="4.2" class="dot" opacity="0.62"/>
<circle cx="170.02" cy="394.73" r="4.2" class="dot" opacity="0.9"/>
<circle cx="888.57" cy="169.46" r="4.2" class="dot" opacity="0.62"/>
<circle cx="331.53" cy="387.33" r="4.2" class="dot" opacity="0.62"/>
<circle cx="213.61" cy="367.05" r="4.2" class="dot" opacity="0.9"/>
<circle cx="239.39" cy="408.88" r="4.2" class="dot" opacity="0.62"/>
<circle cx="167.32" cy="376.67" r="4.2" class="dot" opacity="0.62"/>
<circle cx="153.66" cy="387.20" r="4.2" class="dot" opacity="0.9"/>
<circle cx="345.94" cy="315.75" r="4.2" class="dot" opacity="0.62"/>
<circle cx="259.27" cy="277.35" r="4.2" class="dot" opacity="0.62"/>
<circle cx="213.26" cy="322.37" r="4.2" class="dot" opacity="0.9"/>
<circle cx="436.56" cy="283.65" r="4.2" class="dot" opacity="0.62"/>
<circle cx="334.45" cy="264.15" r="4.2" class="dot" opacity="0.62"/>
<circle cx="142.63" cy="365.19" r="4.2" class="dot" opacity="0.9"/>
<circle cx="139.43" cy="310.58" r="4.2" class="dot" opacity="0.62"/>
<circle cx="168.31" cy="406.08" r="4.2" class="dot" opacity="0.62"/>
<circle cx="315.54" cy="370.04" r="4.2" class="dot" opacity="0.9"/>
<circle cx="166.46" cy="400.15" r="4.2" class="dot" opacity="0.62"/>
<circle cx="257.15" cy="362.03" r="4.2" class="dot" opacity="0.62"/>
<circle cx="365.06" cy="327.47" r="4.2" class="dot" opacity="0.9"/>
<circle cx="882.61" cy="209.92" r="4.2" class="dot" opacity="0.62"/>
<circle cx="449.07" cy="316.16" r="4.2" class="dot" opacity="0.62"/>
<circle cx="803.57" cy="224.91" r="4.2" class="dot" opacity="0.9"/>
<circle cx="466.72" cy="250.22" r="4.2" class="dot" opacity="0.62"/>
<circle cx="642.98" cy="227.22" r="4.2" class="dot" opacity="0.62"/>
<circle cx="447.52" cy="317.00" r="4.2" class="dot" opacity="0.9"/>
<circle cx="181.03" cy="375.65" r="4.2" class="dot" opacity="0.62"/>
<circle cx="712.19" cy="240.20" r="4.2" class="dot" opacity="0.62"/>
<circle cx="313.86" cy="323.62" r="4.2" class="dot" opacity="0.9"/>
<circle cx="405.17" cy="339.92" r="4.2" class="dot" opacity="0.62"/>
<circle cx="263.33" cy="353.69" r="4.2" class="dot" opacity="0.62"/>
<circle cx="178.38" cy="342.21" r="4.2" class="dot" opacity="0.9"/>
<circle cx="577.23" cy="227.82" r="4.2" class="dot" opacity="0.62"/>
<circle cx="266.51" cy="291.77" r="4.2" class="dot" opacity="0.62"/>
<circle cx="439.65" cy="276.88" r="4.2" class="dot" opacity="0.9"/>
<circle cx="140.85" cy="339.77" r="4.2" class="dot" opacity="0.62"/>
<circle cx="553.36" cy="281.81" r="4.2" class="dot" opacity="0.62"/>
<circle cx="386.06" cy="306.00" r="4.2" class="dot" opacity="0.9"/>
<circle cx="333.19" cy="326.14" r="4.2" class="dot" opacity="0.62"/>
<circle cx="189.91" cy="340.84" r="4.2" class="dot" opacity="0.62"/>
<circle cx="147.55" cy="422.22" r="4.2" class="dot" opacity="0.9"/>
<circle cx="342.34" cy="325.95" r="4.2" class="dot" opacity="0.62"/>
<circle cx="450.46" cy="318.37" r="4.2" class="dot" opacity="0.62"/>
<circle cx="466.85" cy="327.42" r="4.2" class="dot" opacity="0.9"/>
<circle cx="229.61" cy="427.22" r="4.2" class="dot" opacity="0.62"/>
<circle cx="677.90" cy="280.47" r="4.2" class="dot" opacity="0.62"/>
<circle cx="203.64" cy="346.30" r="4.2" class="dot" opacity="0.9"/>
<circle cx="242.55" cy="318.26" r="4.2" class="dot" opacity="0.62"/>
<circle cx="134.91" cy="363.75" r="4.2" class="dot" opacity="0.62"/>
<circle cx="132.65" cy="438.77" r="4.2" class="dot" opacity="0.9"/>
<circle cx="209.21" cy="340.81" r="4.2" class="dot" opacity="0.62"/>
<circle cx="699.41" cy="187.32" r="4.2" class="dot" opacity="0.62"/>
<circle cx="390.12" cy="268.53" r="4.2" class="dot" opacity="0.9"/>
<circle cx="234.33" cy="365.71" r="4.2" class="dot" opacity="0.62"/>
<circle cx="216.98" cy="388.06" r="4.2" class="dot" opacity="0.62"/>
<circle cx="155.57" cy="357.21" r="4.2" class="dot" opacity="0.9"/>
<circle cx="146.42" cy="353.25" r="4.2" class="dot" opacity="0.62"/>
<circle cx="272.96" cy="385.27" r="4.2" class="dot" opacity="0.62"/>
<circle cx="274.25" cy="335.02" r="4.2" class="dot" opacity="0.9"/>
<circle cx="267.57" cy="331.24" r="4.2" class="dot" opacity="0.62"/>
<circle cx="314.10" cy="318.24" r="4.2" class="dot" opacity="0.62"/>
<circle cx="135.40" cy="341.74" r="4.2" class="dot" opacity="0.9"/>
<circle cx="290.70" cy="345.60" r="4.2" class="dot" opacity="0.62"/>
<circle cx="406.80" cy="348.06" r="4.2" class="dot" opacity="0.62"/>
<circle cx="182.87" cy="312.29" r="4.2" class="dot" opacity="0.9"/>
<circle cx="343.01" cy="392.19" r="4.2" class="dot" opacity="0.62"/>
<circle cx="163.27" cy="476.31" r="4.2" class="dot" opacity="0.62"/>
<circle cx="591.24" cy="300.65" r="4.2" class="dot" opacity="0.9"/>
<circle cx="380.25" cy="320.96" r="4.2" class="dot" opacity="0.62"/>
<circle cx="503.30" cy="275.26" r="4.2" class="dot" opacity="0.62"/>
<circle cx="537.85" cy="286.88" r="4.2" class="dot" opacity="0.9"/>
<circle cx="131.43" cy="405.67" r="4.2" class="dot" opacity="0.62"/>
<circle cx="154.24" cy="420.92" r="4.2" class="dot" opacity="0.62"/>
<circle cx="136.71" cy="380.51" r="4.2" class="dot" opacity="0.9"/>
<circle cx="221.25" cy="424.35" r="4.2" class="dot" opacity="0.62"/>
<circle cx="292.97" cy="372.69" r="4.2" class="dot" opacity="0.62"/>
<circle cx="264.87" cy="407.32" r="4.2" class="dot" opacity="0.9"/>
<circle cx="187.62" cy="439.44" r="4.2" class="dot" opacity="0.62"/>
<circle cx="463.51" cy="300.70" r="4.2" class="dot" opacity="0.62"/>
<circle cx="338.98" cy="323.86" r="4.2" class="dot" opacity="0.9"/>
<circle cx="201.32" cy="335.36" r="4.2" class="dot" opacity="0.62"/>
<circle cx="734.66" cy="241.77" r="4.2" class="dot" opacity="0.62"/>
<circle cx="153.70" cy="345.44" r="4.2" class="dot" opacity="0.9"/>
<circle cx="599.06" cy="284.81" r="4.2" class="dot" opacity="0.62"/>
<circle cx="149.02" cy="359.38" r="4.2" class="dot" opacity="0.62"/>
<circle cx="135.74" cy="409.02" r="4.2" class="dot" opacity="0.9"/>
<circle cx="757.45" cy="214.21" r="4.2" class="dot" opacity="0.62"/>
<circle cx="146.81" cy="365.63" r="4.2" class="dot" opacity="0.62"/>
<circle cx="432.85" cy="321.09" r="4.2" class="dot" opacity="0.9"/>
<circle cx="522.33" cy="320.87" r="4.2" class="dot" opacity="0.62"/>
<circle cx="316.45" cy="329.47" r="4.2" class="dot" opacity="0.62"/>
<circle cx="168.14" cy="425.39" r="4.2" class="dot" opacity="0.9"/>
<circle cx="183.51" cy="396.60" r="4.2" class="dot" opacity="0.62"/>
<circle cx="233.21" cy="339.64" r="4.2" class="dot" opacity="0.62"/>
<circle cx="184.06" cy="361.62" r="4.2" class="dot" opacity="0.9"/>
<circle cx="216.95" cy="332.49" r="4.2" class="dot" opacity="0.62"/>
<circle cx="357.24" cy="334.86" r="4.2" class="dot" opacity="0.62"/>
<circle cx="238.75" cy="394.60" r="4.2" class="dot" opacity="0.9"/>
<circle cx="255.60" cy="346.87" r="4.2" class="dot" opacity="0.62"/>
<circle cx="214.91" cy="360.92" r="4.2" class="dot" opacity="0.62"/>
<circle cx="753.49" cy="250.30" r="4.2" class="dot" opacity="0.9"/>
<circle cx="552.93" cy="285.70" r="4.2" class="dot" opacity="0.62"/>
<circle cx="202.39" cy="289.10" r="4.2" class="dot" opacity="0.62"/>
<circle cx="175.87" cy="330.99" r="4.2" class="dot" opacity="0.9"/>
<circle cx="170.10" cy="401.06" r="4.2" class="dot" opacity="0.62"/>
<circle cx="131.44" cy="503.52" r="4.2" class="dot" opacity="0.62"/>
<circle cx="305.89" cy="327.55" r="4.2" class="dot" opacity="0.9"/>
<circle cx="776.85" cy="192.11" r="4.2" class="dot" opacity="0.62"/>
<circle cx="405.34" cy="327.60" r="4.2" class="dot" opacity="0.62"/>
<circle cx="791.65" cy="189.52" r="4.2" class="dot" opacity="0.9"/>
<circle cx="460.86" cy="311.18" r="4.2" class="dot" opacity="0.62"/>
<circle cx="639.90" cy="272.23" r="4.2" class="dot" opacity="0.62"/>
<circle cx="522.36" cy="280.02" r="4.2" class="dot" opacity="0.9"/>
<circle cx="224.48" cy="349.31" r="4.2" class="dot" opacity="0.62"/>
<circle cx="153.41" cy="408.54" r="4.2" class="dot" opacity="0.62"/>
<circle cx="137.73" cy="423.77" r="4.2" class="dot" opacity="0.9"/>
<circle cx="154.29" cy="414.76" r="4.2" class="dot" opacity="0.62"/>
<circle cx="858.49" cy="200.40" r="4.2" class="dot" opacity="0.62"/>
<circle cx="776.62" cy="223.00" r="4.2" class="dot" opacity="0.9"/>
<circle cx="515.38" cy="217.66" r="4.2" class="dot" opacity="0.62"/>
<circle cx="291.15" cy="288.02" r="4.2" class="dot" opacity="0.62"/>
<circle cx="422.17" cy="310.17" r="4.2" class="dot" opacity="0.9"/>
<circle cx="511.57" cy="308.98" r="4.2" class="dot" opacity="0.62"/>
<circle cx="326.24" cy="319.67" r="4.2" class="dot" opacity="0.62"/>
<circle cx="170.38" cy="380.97" r="4.2" class="dot" opacity="0.9"/>
<circle cx="154.26" cy="408.05" r="4.2" class="dot" opacity="0.62"/>
<circle cx="478.83" cy="279.15" r="4.2" class="dot" opacity="0.62"/>
<circle cx="283.43" cy="387.50" r="4.2" class="dot" opacity="0.9"/>
<circle cx="134.37" cy="465.01" r="4.2" class="dot" opacity="0.62"/>
<circle cx="398.23" cy="294.09" r="4.2" class="dot" opacity="0.62"/>
<circle cx="303.50" cy="333.60" r="4.2" class="dot" opacity="0.9"/>
<circle cx="209.59" cy="388.99" r="4.2" class="dot" opacity="0.62"/>
<circle cx="191.29" cy="417.70" r="4.2" class="dot" opacity="0.62"/>
<circle cx="788.19" cy="269.58" r="4.2" class="dot" opacity="0.9"/>
<circle cx="134.51" cy="459.57" r="4.2" class="dot" opacity="0.62"/>
<circle cx="137.65" cy="364.73" r="4.2" class="dot" opacity="0.62"/>
<circle cx="264.10" cy="358.36" r="4.2" class="dot" opacity="0.9"/>
<circle cx="748.07" cy="207.11" r="4.2" class="dot" opacity="0.62"/>
<circle cx="336.98" cy="283.27" r="4.2" class="dot" opacity="0.62"/>
<circle cx="298.30" cy="350.61" r="4.2" class="dot" opacity="0.9"/>
<circle cx="345.36" cy="390.44" r="4.2" class="dot" opacity="0.62"/>
<circle cx="412.82" cy="276.38" r="4.2" class="dot" opacity="0.62"/>
<circle cx="486.09" cy="308.37" r="4.2" class="dot" opacity="0.9"/>
<circle cx="496.96" cy="346.69" r="4.2" class="dot" opacity="0.62"/>
<circle cx="242.68" cy="390.00" r="4.2" class="dot" opacity="0.62"/>
<circle cx="165.06" cy="365.92" r="4.2" class="dot" opacity="0.9"/>
<circle cx="662.51" cy="227.28" r="4.2" class="dot" opacity="0.62"/>
<circle cx="222.40" cy="379.55" r="4.2" class="dot" opacity="0.62"/>
<circle cx="182.82" cy="450.09" r="4.2" class="dot" opacity="0.9"/>
<circle cx="188.80" cy="435.93" r="4.2" class="dot" opacity="0.62"/>
<circle cx="297.35" cy="392.33" r="4.2" class="dot" opacity="0.62"/>
<circle cx="647.70" cy="245.60" r="4.2" class="dot" opacity="0.9"/>
<circle cx="690.28" cy="224.55" r="4.2" class="dot" opacity="0.62"/>
<circle cx="174.34" cy="393.18" r="4.2" class="dot" opacity="0.62"/>
<circle cx="312.66" cy="351.70" r="4.2" class="dot" opacity="0.9"/>
<circle cx="219.34" cy="384.92" r="4.2" class="dot" opacity="0.62"/>
<circle cx="766.17" cy="196.27" r="4.2" class="dot" opacity="0.62"/>
<circle cx="137.32" cy="447.85" r="4.2" class="dot" opacity="0.9"/>
<circle cx="361.50" cy="338.60" r="4.2" class="dot" opacity="0.62"/>
<circle cx="150.64" cy="339.39" r="4.2" class="dot" opacity="0.62"/>
<circle cx="294.57" cy="318.73" r="4.2" class="dot" opacity="0.9"/>
<circle cx="255.37" cy="305.44" r="4.2" class="dot" opacity="0.62"/>
<circle cx="151.40" cy="349.69" r="4.2" class="dot" opacity="0.62"/>
<circle cx="371.90" cy="358.63" r="4.2" class="dot" opacity="0.9"/>
<circle cx="351.40" cy="382.52" r="4.2" class="dot" opacity="0.62"/>
<circle cx="184.98" cy="386.64" r="4.2" class="dot" opacity="0.62"/>
<circle cx="204.90" cy="321.87" r="4.2" class="dot" opacity="0.9"/>
<circle cx="743.54" cy="210.72" r="4.2" class="dot" opacity="0.62"/>
<circle cx="280.05" cy="279.95" r="4.2" class="dot" opacity="0.62"/>
<circle cx="231.97" cy="428.18" r="4.2" class="dot" opacity="0.9"/>
<circle cx="221.67" cy="326.95" r="4.2" class="dot" opacity="0.62"/>
<circle cx="592.25" cy="373.81" r="4.2" class="dot" opacity="0.62"/>
<circle cx="594.90" cy="291.15" r="4.2" class="dot" opacity="0.9"/>
<circle cx="240.22" cy="344.49" r="4.2" class="dot" opacity="0.62"/>
<circle cx="169.25" cy="466.16" r="4.2" class="dot" opacity="0.62"/>
<circle cx="339.28" cy="323.80" r="4.2" class="dot" opacity="0.9"/>
<circle cx="253.98" cy="369.33" r="4.2" class="dot" opacity="0.62"/>
<circle cx="234.64" cy="356.95" r="4.2" class="dot" opacity="0.62"/>
<circle cx="428.72" cy="302.16" r="4.2" class="dot" opacity="0.9"/>
  <line x1="86.00" y1="405.32" x2="934.00" y2="178.01" class="fit"/>
  <text x="510" y="606" class="label" text-anchor="middle">1 / x</text>
  <text x="24" y="313" class="label" text-anchor="middle" transform="rotate(-90 24 313)">y^2</text>
</svg>
